<svg xmlns="http://www.w3.org/2000/svg" viewBox="0 0 130 44.01"><defs><style>.cls-1{isolation:isolate;}.cls-2,.cls-6{mix-blend-mode:multiply;}.cls-3,.cls-4,.cls-6{fill:#3489a6;}.cls-4{font-size:9.59px;font-family:Jalnan;}.cls-5{fill:none;stroke:#3489a6;stroke-linecap:round;stroke-miterlimit:10;stroke-width:2.29px;}</style></defs><g class="cls-1"><g id="Layer_2" data-name="Layer 2"><g id="로그인_창" data-name="로그인 창"><g id="footer_logo" data-name="footer logo"><g class="cls-2"><path class="cls-3" d="M20.2,21.59a2,2,0,0,1,.8-1.78,3.21,3.21,0,0,1,1.88-.55,3.26,3.26,0,0,1,1.89.55,2,2,0,0,1,.8,1.78,2.5,2.5,0,0,1-.22,1.08,2,2,0,0,1-.58.72,2.45,2.45,0,0,1-.86.41,4.48,4.48,0,0,1-2.06,0,2.32,2.32,0,0,1-.85-.41,1.89,1.89,0,0,1-.58-.72A2.36,2.36,0,0,1,20.2,21.59Zm0,6A2.28,2.28,0,0,1,21,25.62a3.17,3.17,0,0,1,3.74,0,2.28,2.28,0,0,1,.79,1.93V40.67H20.22Z"/><path class="cls-3" d="M28.25,40.67V27.37a2.51,2.51,0,0,1,.22-1.1,2.45,2.45,0,0,1,.58-.79,2.54,2.54,0,0,1,.83-.48,2.88,2.88,0,0,1,1-.16,2.83,2.83,0,0,1,1.4.35,2.34,2.34,0,0,1,1,1,5.11,5.11,0,0,1,1.74-1,5.9,5.9,0,0,1,2-.35,7.87,7.87,0,0,1,2.31.33,4.45,4.45,0,0,1,1.86,1.12,5.77,5.77,0,0,1,1.25,2.14,10.38,10.38,0,0,1,.46,3.35v8.89H37.6V31.48a2.64,2.64,0,0,0-.2-1.08,2,2,0,0,0-.49-.72,1.75,1.75,0,0,0-.66-.4,2.25,2.25,0,0,0-1.39,0,1.79,1.79,0,0,0-.67.4,2,2,0,0,0-.51.72,2.82,2.82,0,0,0-.19,1.08v9.19Z"/><path class="cls-3" d="M55.12,40.67l-.2-1.06a5.93,5.93,0,0,1-1.76,1.09,5.74,5.74,0,0,1-2.17.4h-.57a7,7,0,0,1-1.73-.24A4.91,4.91,0,0,1,47,40a4.56,4.56,0,0,1-1.32-1.57A5.26,5.26,0,0,1,45.13,36a5,5,0,0,1,.52-2.41A4.22,4.22,0,0,1,47,32a5.84,5.84,0,0,1,2-.83,11.15,11.15,0,0,1,2.42-.26h2.66A2.19,2.19,0,0,0,53.9,30a1.47,1.47,0,0,0-.52-.58,2,2,0,0,0-.75-.31,4.26,4.26,0,0,0-.89-.09,4.71,4.71,0,0,0-.85.08c-.28.05-.57.12-.88.2a4.38,4.38,0,0,0-.58.23l-.63.28A1.85,1.85,0,0,1,48,30a2.64,2.64,0,0,1-.79-.1,2.1,2.1,0,0,1-.71-.37,1.71,1.71,0,0,1-.5-.63,1.86,1.86,0,0,1-.11-1.49,2.63,2.63,0,0,1,.93-1.23A5.37,5.37,0,0,1,48,25.57a9.64,9.64,0,0,1,1.35-.42,11.07,11.07,0,0,1,1.4-.24,13.29,13.29,0,0,1,1.38-.07,11.77,11.77,0,0,1,2.68.29,5.57,5.57,0,0,1,2.24,1,5.08,5.08,0,0,1,1.55,2.06,8.36,8.36,0,0,1,.58,3.37v9.07Zm-1-6H51.77a1.67,1.67,0,0,0-1.14.34,1.19,1.19,0,0,0-.39,1,1.13,1.13,0,0,0,.39.94,1.69,1.69,0,0,0,1.06.3h.36a2.55,2.55,0,0,0,.72-.1,2.47,2.47,0,0,0,.66-.3,1.83,1.83,0,0,0,.49-.51,1.28,1.28,0,0,0,.2-.71Z"/><path class="cls-3" d="M73.68,40.67V24.76h-4a2.13,2.13,0,0,1-1-.2,1.81,1.81,0,0,1-.65-.53,2.42,2.42,0,0,1-.36-.74,2.74,2.74,0,0,1-.12-.78,2.64,2.64,0,0,1,.12-.78,2.27,2.27,0,0,1,.36-.71,1.64,1.64,0,0,1,.65-.5,2.13,2.13,0,0,1,1-.19H83a2.21,2.21,0,0,1,1,.19,1.72,1.72,0,0,1,.65.5,2.27,2.27,0,0,1,.36.71,3,3,0,0,1,.11.78,3.12,3.12,0,0,1-.11.78,2.26,2.26,0,0,1-.38.74,2,2,0,0,1-.64.53,2.13,2.13,0,0,1-1,.2h-4V40.67Z"/><path class="cls-3" d="M84.37,31.8A7.53,7.53,0,0,1,85,28.41a5.87,5.87,0,0,1,1.76-2.15,6.31,6.31,0,0,1,2.41-1.14,11,11,0,0,1,2.65-.33,10.87,10.87,0,0,1,2.62.33,6.38,6.38,0,0,1,2.41,1.14,6.09,6.09,0,0,1,1.77,2.15,7.52,7.52,0,0,1,.68,3.39v2.34a7.52,7.52,0,0,1-.68,3.39,6.09,6.09,0,0,1-1.77,2.15,6.55,6.55,0,0,1-2.41,1.15,10.89,10.89,0,0,1-5.24,0,6.59,6.59,0,0,1-2.42-1.15,6.09,6.09,0,0,1-1.77-2.15,7.52,7.52,0,0,1-.68-3.39Zm9.78-.22a3.05,3.05,0,0,0-.2-1.16,2.45,2.45,0,0,0-.53-.77,2,2,0,0,0-.74-.44,2.36,2.36,0,0,0-.82-.14,2.41,2.41,0,0,0-.83.14,2,2,0,0,0-.74.44,2.27,2.27,0,0,0-.52.77,2.86,2.86,0,0,0-.21,1.16v2.78a2.86,2.86,0,0,0,.21,1.16,2.27,2.27,0,0,0,.52.77,2,2,0,0,0,.74.44,2.41,2.41,0,0,0,.83.14,2.36,2.36,0,0,0,.82-.14,2,2,0,0,0,.74-.44,2.45,2.45,0,0,0,.53-.77,3.05,3.05,0,0,0,.2-1.16Z"/><path class="cls-3" d="M107.53,41.1a7.77,7.77,0,0,1-2.31-.33,4.33,4.33,0,0,1-1.86-1.12,5.65,5.65,0,0,1-1.26-2.14,10.38,10.38,0,0,1-.46-3.35V27.37a2.28,2.28,0,0,1,.79-1.93,3.21,3.21,0,0,1,3.74,0,2.31,2.31,0,0,1,.79,1.93v7.1a2.61,2.61,0,0,0,.19,1.08,2.08,2.08,0,0,0,.49.71,1.75,1.75,0,0,0,.66.4,2.49,2.49,0,0,0,.7.11,2.46,2.46,0,0,0,.67-.11,2,2,0,0,0,.66-.37,2.21,2.21,0,0,0,.5-.67,2.57,2.57,0,0,0,.23-1V27.34a2.31,2.31,0,0,1,.76-1.9,2.91,2.91,0,0,1,1.85-.6,3,3,0,0,1,1.86.6,2.29,2.29,0,0,1,.77,1.9V40.67h-4.1L111.91,39a5.1,5.1,0,0,1-1.85,1.52A5.72,5.72,0,0,1,107.53,41.1Z"/><path class="cls-3" d="M118.88,40.67V27.37a2.66,2.66,0,0,1,.22-1.1,2.45,2.45,0,0,1,.58-.79,2.54,2.54,0,0,1,.83-.48,2.92,2.92,0,0,1,1-.16,2.89,2.89,0,0,1,1.41.35,2.24,2.24,0,0,1,1,1.07,5.72,5.72,0,0,1,1.6-1,4.48,4.48,0,0,1,1.83-.38l.61,0a2,2,0,0,1,.61.17,2.13,2.13,0,0,1,1.12,1,2.61,2.61,0,0,1,.25,1.6,2.2,2.2,0,0,1-.77,1.42,2.24,2.24,0,0,1-1.48.53h-.59a4,4,0,0,0-.6,0,2.72,2.72,0,0,0-1.69.63,2.19,2.19,0,0,0-.66,1.52v8.92Z"/><ellipse class="cls-3" cx="22.88" cy="40.88" rx="2.67" ry="3.12"/><ellipse class="cls-3" cx="30.87" cy="40.88" rx="2.63" ry="3.07"/><ellipse class="cls-3" cx="40.25" cy="40.88" rx="2.66" ry="3.1"/><ellipse class="cls-3" cx="57.15" cy="40" rx="2.08" ry="2.43"/><ellipse class="cls-3" cx="76.38" cy="40.19" rx="2.7" ry="3.15"/><ellipse class="cls-3" cx="114.24" cy="40.16" rx="2.07" ry="2.41"/><ellipse class="cls-3" cx="121.52" cy="40.16" rx="2.61" ry="3.04"/><path class="cls-3" d="M5.51,22.07A2.52,2.52,0,0,0,4.1,20.43,3.35,3.35,0,0,0,2,20.28a2.62,2.62,0,0,0-1,.43,2.5,2.5,0,0,0-.71.74,2.27,2.27,0,0,0-.32,1,2.5,2.5,0,0,0,.18,1.15L6.77,40.67h.05a2.73,2.73,0,0,0,.3.59l2.07-8Z"/><path class="cls-3" d="M18.38,21.45a2.44,2.44,0,0,0-1.62-1.17,3.12,3.12,0,0,0-2,.15,2.5,2.5,0,0,0-1.34,1.62L9.48,34.11l0-.06-2,7.66a2.68,2.68,0,0,0,1.89.77,2.72,2.72,0,0,0,2.56-1.81H12l6.45-17a3.14,3.14,0,0,0,.21-1.2A2.36,2.36,0,0,0,18.38,21.45Z"/></g><text class="cls-4" transform="translate(94.51 18.17) scale(0.92 1)">비나투어</text><path class="cls-5" d="M57.54,15c8.35,9.27,8.35,9.27.22,16.59"/><path class="cls-6" d="M40.75,5.09,29.4,1.3s-3-.33-3.59,1a3.73,3.73,0,0,0,2.71,2.75l23.73,8s7.16.12,8.6-1A14.48,14.48,0,0,0,64,8.2l-1-.93L56.39,10.4,49.67,8.1l5.46-6.63L53.74,0Z"/></g></g></g></g></svg>