<svg xmlns="http://www.w3.org/2000/svg" viewBox="0 0 33.72 33.67"><defs><style>.cls-1{fill:#44b6e6;}</style></defs><g id="Layer_2" data-name="Layer 2"><g id="Layer_1-2" data-name="Layer 1"><path class="cls-1" d="M5.12,33.67a34.29,34.29,0,0,1,.66-5.2,24.21,24.21,0,0,1,4.05-9.88,13.21,13.21,0,0,1-2.76,1.69c-1.22.47-2.26,0-1.05-3.38,0,0,.16-.33.39-.95s.58-1.53,1-2.66A26.74,26.74,0,0,1,9,9.61a8.49,8.49,0,0,1,3.39-3.27l.42-.19A8.54,8.54,0,0,1,14,5.7a19.79,19.79,0,0,1,4.11-.84c3.22-.36,6.86-.18,8,.76a3.14,3.14,0,0,1,.34-2.45C27.16,2,29.09.94,33.72,1.42A5.44,5.44,0,0,0,31,.34C28.81,0,25.13-.37,18.89,1l-2.56.8a27.41,27.41,0,0,0-6,2.61A10.2,10.2,0,0,0,7.39,7.1a15.5,15.5,0,0,0-1.77,3.61,61.63,61.63,0,0,1-2.51,7s-.26.85-.79,1c-.26.07-.59,0-1-.51A8.42,8.42,0,0,1,0,15.35s0,.83.17,2.14a47.69,47.69,0,0,0,.84,5A38.57,38.57,0,0,0,5.12,33.67Z"/></g></g></svg>