<svg xmlns="http://www.w3.org/2000/svg" viewBox="0 0 33.93 33.52"><defs><style>.cls-1{fill:#44b6e6;}</style></defs><g id="Layer_2" data-name="Layer 2"><g id="Layer_1-2" data-name="Layer 1"><path class="cls-1" d="M29.74,33.52a35.82,35.82,0,0,1,.64-5.21,39.3,39.3,0,0,1,3.55-10.52,10.23,10.23,0,0,1-2.57,2.14c-1.21.57-2.14.26-1.47-3.37a10.5,10.5,0,0,0,.21-1.06,16.86,16.86,0,0,0,.13-3.12,12.87,12.87,0,0,0-1.39-5.2,9.3,9.3,0,0,0-2.4-2.89,10.38,10.38,0,0,0-3.68-1.81l-.59-.15A14.67,14.67,0,0,0,20.62,2a42.94,42.94,0,0,0-4.68-.55C12.5,1.19,8.86,1,7.71,0a3.13,3.13,0,0,1-.4,2.44C6.53,3.6,4.62,4.62,0,4.14A5.48,5.48,0,0,0,2.75,5.23c2.14.46,5.81.53,11.76-.05A24.06,24.06,0,0,1,17,4.86a14.48,14.48,0,0,1,5.84.55,6.82,6.82,0,0,1,2.93,2,8.56,8.56,0,0,1,1.68,3.37,12.44,12.44,0,0,1-.28,7s-.15.85-.66,1.05c-.25.1-.59,0-1-.35a10.74,10.74,0,0,1-1.74-2.26l1.76,6.24C26.5,26.1,27.88,30.57,29.74,33.52Z" transform="translate(0)"/></g></g></svg>