<svg xmlns="http://www.w3.org/2000/svg" viewBox="0 0 170.38 57.74"><defs><style>.cls-1{fill:#fff;}</style></defs><g id="Layer_2" data-name="Layer 2"><g id="Layer_1-2" data-name="Layer 1"><path id="footer_logo" data-name="footer logo" class="cls-1" d="M110.63,41.73a9.88,9.88,0,0,1,.88-4.45,7.7,7.7,0,0,1,2.3-2.83A8.59,8.59,0,0,1,117,33a14.35,14.35,0,0,1,3.47-.44,14.17,14.17,0,0,1,3.44.44A8.52,8.52,0,0,1,127,34.45a8,8,0,0,1,2.32,2.83,9.74,9.74,0,0,1,.9,4.45v3.06a9.78,9.78,0,0,1-.9,4.46A8,8,0,0,1,127,52.07a8.7,8.7,0,0,1-3.16,1.5,13.94,13.94,0,0,1-6.87,0,8.82,8.82,0,0,1-3.17-1.5,8.11,8.11,0,0,1-2.32-2.82,9.92,9.92,0,0,1-.89-4.46Zm12.83-.3a3.78,3.78,0,0,0-.27-1.51,3.18,3.18,0,0,0-.7-1,2.66,2.66,0,0,0-1-.59,3.46,3.46,0,0,0-1.09-.18,3.4,3.4,0,0,0-1.08.18,2.66,2.66,0,0,0-1,.59,2.89,2.89,0,0,0-.7,1,3.78,3.78,0,0,0-.27,1.51v3.66a3.74,3.74,0,0,0,.27,1.51,3,3,0,0,0,.7,1,2.63,2.63,0,0,0,1,.58,3.4,3.4,0,0,0,1.08.18,3.46,3.46,0,0,0,1.09-.18,2.63,2.63,0,0,0,1-.58,3.35,3.35,0,0,0,.7-1,3.74,3.74,0,0,0,.27-1.51ZM27.53,30.69a3,3,0,0,0,1.12.54,5.82,5.82,0,0,0,2.71,0,3,3,0,0,0,1.11-.54,2.61,2.61,0,0,0,.76-.94,3.08,3.08,0,0,0,.29-1.42A2.63,2.63,0,0,0,32.47,26a4.6,4.6,0,0,0-4.94,0,2.63,2.63,0,0,0-1.05,2.34,3.21,3.21,0,0,0,.29,1.42A2.61,2.61,0,0,0,27.53,30.69Zm6,22.68V36.15a3,3,0,0,0-1-2.53,4.17,4.17,0,0,0-4.91,0,3,3,0,0,0-1,2.53V53.37h0a2.4,2.4,0,0,0,0,.28A3.83,3.83,0,0,0,30,57.74a3.83,3.83,0,0,0,3.5-4.09c0-.1,0-.19,0-.28ZM56.27,41.7a13.78,13.78,0,0,0-.61-4.39A7.43,7.43,0,0,0,54,34.5,5.74,5.74,0,0,0,51.58,33a10.23,10.23,0,0,0-3-.43,7.65,7.65,0,0,0-2.66.47,6.56,6.56,0,0,0-2.28,1.36,3,3,0,0,0-1.3-1.36,3.88,3.88,0,0,0-3.14-.25,3.26,3.26,0,0,0-1.08.63,3.07,3.07,0,0,0-.76,1A3.39,3.39,0,0,0,37,35.91V53.37h0c0,.09,0,.18,0,.28a3.76,3.76,0,0,0,3.44,4,3.77,3.77,0,0,0,3.45-4,2.4,2.4,0,0,0,0-.28h0V41.3a3.51,3.51,0,0,1,.26-1.41,2.69,2.69,0,0,1,.66-1,2.41,2.41,0,0,1,.88-.52,3,3,0,0,1,1.82,0,2.3,2.3,0,0,1,.87.52,2.78,2.78,0,0,1,.64,1,3.51,3.51,0,0,1,.26,1.41V53.37h0a2.46,2.46,0,0,0,0,.28c0,2.24,1.55,4.07,3.48,4.07s3.48-1.83,3.48-4.07c0-.1,0-.19,0-.28h0Zm55.15-13.18a2.72,2.72,0,0,0-.47-.93,2.37,2.37,0,0,0-.85-.67,2.88,2.88,0,0,0-1.27-.25H91.44a2.88,2.88,0,0,0-1.27.25,2.29,2.29,0,0,0-.85.67,2.72,2.72,0,0,0-.47.93,3.27,3.27,0,0,0-.16,1,3.45,3.45,0,0,0,.16,1,3,3,0,0,0,.47,1,2.33,2.33,0,0,0,.85.69,2.74,2.74,0,0,0,1.27.27h5.17V53.37h0a3.49,3.49,0,1,0,7,0h0v-.31c0-.11,0-.21,0-.32s0-.21,0-.32V32.49h5.18a2.67,2.67,0,0,0,1.26-.27,2.57,2.57,0,0,0,.84-.69,2.69,2.69,0,0,0,.49-1,3.8,3.8,0,0,0,.16-1A3.6,3.6,0,0,0,111.42,28.52ZM152.5,52.71h0V35.88a3,3,0,0,0-1-2.49,3.82,3.82,0,0,0-2.43-.8,3.75,3.75,0,0,0-2.42.8,3,3,0,0,0-1,2.49v9.51a3.53,3.53,0,0,1-.31,1.35,2.75,2.75,0,0,1-.66.88,2.53,2.53,0,0,1-.86.48,3,3,0,0,1-.88.15,3.1,3.1,0,0,1-.92-.15,2.21,2.21,0,0,1-.86-.52,2.79,2.79,0,0,1-.64-.93,3.45,3.45,0,0,1-.26-1.43V35.91a3,3,0,0,0-1-2.52,4.17,4.17,0,0,0-4.91,0,3,3,0,0,0-1,2.52v8.92a13.67,13.67,0,0,0,.61,4.38A7.28,7.28,0,0,0,135.52,52,5.74,5.74,0,0,0,138,53.5a10.23,10.23,0,0,0,3,.44,7.42,7.42,0,0,0,3.32-.74,6.58,6.58,0,0,0,2.43-2l.38,2.16h0a2.65,2.65,0,0,0,5.29,0h.07ZM170,34.19a2.74,2.74,0,0,0-1.47-1.33,2.38,2.38,0,0,0-.79-.22,7.8,7.8,0,0,0-.8,0,6,6,0,0,0-2.4.5,7.57,7.57,0,0,0-2.1,1.36,3,3,0,0,0-1.3-1.39,3.88,3.88,0,0,0-3.14-.25,3.26,3.26,0,0,0-1.08.63,2.94,2.94,0,0,0-.76,1,3.39,3.39,0,0,0-.29,1.44V53.37h.1a3.36,3.36,0,0,0,6.72,0h.05v-.56s0-.07,0-.11,0-.08,0-.12V41.67a2.82,2.82,0,0,1,.87-2,3.54,3.54,0,0,1,2.21-.83,6.66,6.66,0,0,1,.78,0c.27,0,.53,0,.78,0a2.92,2.92,0,0,0,3-2.56A3.33,3.33,0,0,0,170,34.19Zm-145.91-6a3.14,3.14,0,0,0-.87-1A3.49,3.49,0,0,0,22,26.6a4.14,4.14,0,0,0-2.64.2,3.34,3.34,0,0,0-1.76,2.13L12.44,44.74l-.77,2.94-1.49,5.69-.34,1.31a3.62,3.62,0,0,0,2.46,1,3.76,3.76,0,0,0,3.41-2.3h0l0-.09a1.22,1.22,0,0,0,.07-.17L24.18,31a4.16,4.16,0,0,0,.27-1.57A3,3,0,0,0,24.1,28.15ZM7.22,29A3.28,3.28,0,0,0,5.38,26.8a4.46,4.46,0,0,0-2.73-.2,3.8,3.8,0,0,0-1.28.57,3.1,3.1,0,0,0-.93,1A3,3,0,0,0,0,29.45,3.46,3.46,0,0,0,.25,31L8.81,53.19v0l.06.15h0a4,4,0,0,0,.44.75l.2-.75L11,47.88l1.1-4.2Zm119.11-4.72a2.79,2.79,0,0,1-.84-.1,1,1,0,0,1-.51-.33,1.25,1.25,0,0,1-.27-.58,4.41,4.41,0,0,1-.07-.88V14.64a1.07,1.07,0,0,1,1.16-1.25,1.11,1.11,0,0,1,.81.3,1.25,1.25,0,0,1,.31,1v1.92H129V14.64a1.25,1.25,0,0,1,.32-1,1.16,1.16,0,0,1,.81-.29,1.12,1.12,0,0,1,.82.3,1.25,1.25,0,0,1,.31,1v9.61ZM129,22.18V18.61h-2.09v3.24a.41.41,0,0,0,.06.27.41.41,0,0,0,.26.06Zm3.54,2.61V14.22a1.2,1.2,0,0,1,.35-.93,1.16,1.16,0,0,1,.81-.31,1.14,1.14,0,0,1,1.17,1.24V24.79ZM142.32,22a.77.77,0,0,1,.42.1.73.73,0,0,1,.27.25.94.94,0,0,1,.14.34,1.61,1.61,0,0,1,0,.37,1.55,1.55,0,0,1,0,.37.94.94,0,0,1-.14.34.82.82,0,0,1-.69.35h-4.25a3,3,0,0,1-.86-.1,1,1,0,0,1-.54-.33,1.24,1.24,0,0,1-.28-.6,4.09,4.09,0,0,1-.08-.92V14.68a1.13,1.13,0,0,1,.34-.92,1.24,1.24,0,0,1,.82-.28,1.18,1.18,0,0,1,.81.28,1.16,1.16,0,0,1,.33.92v7a.46.46,0,0,0,.06.28.43.43,0,0,0,.27.06Zm1.55-7.84a1.14,1.14,0,0,1,.35-.92,1.19,1.19,0,0,1,.8-.3,1.06,1.06,0,0,1,.43.08,1.1,1.1,0,0,1,.37.23,1.14,1.14,0,0,1,.25.38,1.25,1.25,0,0,1,.1.53v3.18h.38a.88.88,0,0,1,.45.1,1,1,0,0,1,.28.26,1.09,1.09,0,0,1,.15.35,1.72,1.72,0,0,1,0,.39,1.69,1.69,0,0,1,0,.38,1,1,0,0,1-.15.35.81.81,0,0,1-.29.26.87.87,0,0,1-.44.1h-.38v5.22h-2.3Zm10.33,8.06v2.6h-2.38v-2.6h-3.28a.86.86,0,0,1-.75-.31,1.17,1.17,0,0,1-.22-.71,1.22,1.22,0,0,1,.05-.37.87.87,0,0,1,.17-.33.8.8,0,0,1,.3-.24,1,1,0,0,1,.45-.09h8.94a1,1,0,0,1,.45.09.8.8,0,0,1,.3.24.87.87,0,0,1,.17.33,1.22,1.22,0,0,1,0,.37,1.17,1.17,0,0,1-.22.71.86.86,0,0,1-.75.31Zm2.88-9a.81.81,0,0,1,.37.08.87.87,0,0,1,.25.21.92.92,0,0,1,.14.28,1.22,1.22,0,0,1,0,.32,1.06,1.06,0,0,1-.18.6.7.7,0,0,1-.62.26h-6.31c-.21,0-.32.1-.32.3v.32H157a.74.74,0,0,1,.63.25,1.06,1.06,0,0,1,0,1.18.74.74,0,0,1-.63.25h-6.55v.31a.29.29,0,0,0,.08.23.33.33,0,0,0,.24.07h6.49a.69.69,0,0,1,.62.27,1,1,0,0,1,0,1.19.71.71,0,0,1-.62.26h-7.5a1.7,1.7,0,0,1-1.29-.41,2,2,0,0,1-.38-1.35V15a2,2,0,0,1,.38-1.35,1.63,1.63,0,0,1,1.29-.43Zm10.38,6.43h-1.53v1.5a4.2,4.2,0,0,1-.23,1.47,2.91,2.91,0,0,1-.65,1.06,2.72,2.72,0,0,1-1,.64,4,4,0,0,1-1.32.22,3.87,3.87,0,0,1-1.31-.22,2.68,2.68,0,0,1-1-.64,3.08,3.08,0,0,1-.66-1.06,4.45,4.45,0,0,1-.23-1.47V16.56a4.34,4.34,0,0,1,.23-1.46,3,3,0,0,1,.66-1.07,2.68,2.68,0,0,1,1-.64,3.87,3.87,0,0,1,1.31-.21,4,4,0,0,1,1.32.21,2.72,2.72,0,0,1,1,.64,2.87,2.87,0,0,1,.65,1.07,4.11,4.11,0,0,1,.23,1.46v1h1.53V14.2a1.14,1.14,0,0,1,.35-.92,1.19,1.19,0,0,1,.8-.3,1.06,1.06,0,0,1,.43.08,1.1,1.1,0,0,1,.37.23,1,1,0,0,1,.26.38,1.25,1.25,0,0,1,.1.53V24.79h-2.31Zm-5.68,1.56a1.46,1.46,0,0,0,.26.95.84.84,0,0,0,.68.31.83.83,0,0,0,.68-.31,1.4,1.4,0,0,0,.27-.95V16.5a1.42,1.42,0,0,0-.27-.95.83.83,0,0,0-.68-.31.84.84,0,0,0-.68.31,1.48,1.48,0,0,0-.26.95ZM76.57,18.65a1.51,1.51,0,0,0-2.12-.11,1.49,1.49,0,0,0-.11,2.12c5,5.61,7.83,8.71,7.86,10.86,0,1.66-1.73,3.55-5,6.54a7,7,0,0,0-.36-1,6.62,6.62,0,0,0-2-2.71A7.38,7.38,0,0,0,71.89,33a16,16,0,0,0-3.5-.38,16.24,16.24,0,0,0-1.82.1,14.45,14.45,0,0,0-1.84.32,12.41,12.41,0,0,0-1.76.54,7.14,7.14,0,0,0-1.52.83A3.47,3.47,0,0,0,60.23,36a2.45,2.45,0,0,0,.13,1.94,2.25,2.25,0,0,0,.66.83,2.78,2.78,0,0,0,.93.49,3.34,3.34,0,0,0,1,.13,2.27,2.27,0,0,0,1-.25c.32-.13.6-.25.83-.37a6.87,6.87,0,0,1,.77-.3c.4-.11.79-.19,1.15-.26a5.8,5.8,0,0,1,1.11-.1,5.52,5.52,0,0,1,1.17.12,2.76,2.76,0,0,1,1,.39,2.12,2.12,0,0,1,.68.77A3,3,0,0,1,71,40.6H67.47a14.72,14.72,0,0,0-3.16.33A7.66,7.66,0,0,0,61.67,42a5.55,5.55,0,0,0-1.81,2,6.54,6.54,0,0,0-.68,3.16,6.9,6.9,0,0,0,.69,3.26,6.08,6.08,0,0,0,1.73,2.06,6.5,6.5,0,0,0,2.25,1.08,9.11,9.11,0,0,0,2.27.32h.74A7.64,7.64,0,0,0,72,52l.27,1.4h0a2.63,2.63,0,0,0,5.22,0h.09v-.48c0-.13,0-.27,0-.41s0-.27,0-.41V41.74C88.07,32.28,87.77,31.1,76.57,18.65ZM71,46.69a1.71,1.71,0,0,1-.26.93,2.24,2.24,0,0,1-.64.66,2.94,2.94,0,0,1-.86.4,3.47,3.47,0,0,1-1,.14h-.47a2.23,2.23,0,0,1-1.39-.4,1.48,1.48,0,0,1-.51-1.23,1.57,1.57,0,0,1,.51-1.25,2.18,2.18,0,0,1,1.49-.45H71Zm-17.52-40-14.89-5S34.63,1.28,33.84,3a4.9,4.9,0,0,0,3.55,3.61L68.51,17.09s9.39.17,11.28-1.27c0,0,3.16-2.78,4.11-5.06L82.54,9.54l-8.61,4.11-8.81-3,7.17-8.71L70.47,0Z"/></g></g></svg>