<svg xmlns="http://www.w3.org/2000/svg" viewBox="0 0 130 44.16"><defs><style>.cls-1{fill:#3489a6;}</style></defs><g id="Layer_2" data-name="Layer 2"><g id="Layer_1-2" data-name="Layer 1"><path id="footer_logo" data-name="footer logo" class="cls-1" d="M84.41,31.91a7.57,7.57,0,0,1,.67-3.4,5.9,5.9,0,0,1,1.76-2.16,6.55,6.55,0,0,1,2.41-1.15,11,11,0,0,1,2.65-.33,10.87,10.87,0,0,1,2.62.33,6.59,6.59,0,0,1,2.42,1.15,6,6,0,0,1,1.76,2.16,7.43,7.43,0,0,1,.69,3.4v2.34a7.44,7.44,0,0,1-.69,3.41,6,6,0,0,1-1.76,2.16A6.93,6.93,0,0,1,94.52,41a10.57,10.57,0,0,1-5.24,0,6.93,6.93,0,0,1-2.42-1.15,6.13,6.13,0,0,1-1.77-2.16,7.58,7.58,0,0,1-.68-3.41Zm9.79-.23A2.81,2.81,0,0,0,94,30.53a2.34,2.34,0,0,0-.53-.78,2,2,0,0,0-.73-.44,2.45,2.45,0,0,0-.83-.14,2.41,2.41,0,0,0-.83.14,2,2,0,0,0-.73.44,2.34,2.34,0,0,0-.53.78,2.81,2.81,0,0,0-.21,1.15v2.8a2.86,2.86,0,0,0,.21,1.16,2.29,2.29,0,0,0,.53.77,1.86,1.86,0,0,0,.73.45,2.68,2.68,0,0,0,.83.14,2.73,2.73,0,0,0,.83-.14,1.86,1.86,0,0,0,.73-.45,2.29,2.29,0,0,0,.53-.77,2.86,2.86,0,0,0,.21-1.16ZM21,23.47a2.32,2.32,0,0,0,.85.41,4.34,4.34,0,0,0,1,.13,4.27,4.27,0,0,0,1-.13,2.37,2.37,0,0,0,.86-.41,2.07,2.07,0,0,0,.58-.72,2.53,2.53,0,0,0,.22-1.08,2,2,0,0,0-.8-1.8,3.33,3.33,0,0,0-1.89-.54,3.27,3.27,0,0,0-1.88.54,2,2,0,0,0-.8,1.8,2.39,2.39,0,0,0,.22,1.08A1.87,1.87,0,0,0,21,23.47Zm4.54,17.34V27.64a2.28,2.28,0,0,0-.79-1.93,3.17,3.17,0,0,0-3.74,0,2.28,2.28,0,0,0-.79,1.93V40.81h0c0,.07,0,.14,0,.21a2.93,2.93,0,0,0,2.67,3.14A2.93,2.93,0,0,0,25.56,41a1.49,1.49,0,0,0,0-.21Zm17.38-8.92a10.44,10.44,0,0,0-.46-3.36,5.73,5.73,0,0,0-1.25-2.15,4.47,4.47,0,0,0-1.86-1.13A7.88,7.88,0,0,0,37,24.92a5.9,5.9,0,0,0-2,.36,4.91,4.91,0,0,0-1.75,1,2.22,2.22,0,0,0-1-1,2.93,2.93,0,0,0-2.39-.19,2.65,2.65,0,0,0-.83.48,2.35,2.35,0,0,0-.58.79,2.66,2.66,0,0,0-.22,1.1V40.81h0a1.49,1.49,0,0,0,0,.21,2.88,2.88,0,0,0,2.63,3.08A2.88,2.88,0,0,0,33.52,41c0-.07,0-.14,0-.21h0V31.58a2.71,2.71,0,0,1,.19-1.08,2.15,2.15,0,0,1,.5-.72,1.87,1.87,0,0,1,.67-.4,2.6,2.6,0,0,1,.7-.11,2.49,2.49,0,0,1,.7.11,1.75,1.75,0,0,1,.66.4,2.13,2.13,0,0,1,.49.72,2.71,2.71,0,0,1,.19,1.08v9.23h0c0,.07,0,.14,0,.21a2.92,2.92,0,0,0,2.66,3.12A2.92,2.92,0,0,0,42.93,41c0-.07,0-.14,0-.21h0ZM85,21.81a2.32,2.32,0,0,0-.36-.72,1.72,1.72,0,0,0-.65-.5,2.21,2.21,0,0,0-1-.19H69.77a2.18,2.18,0,0,0-1,.19,1.72,1.72,0,0,0-.65.5,2.32,2.32,0,0,0-.36.72,2.63,2.63,0,0,0-.12.77,2.76,2.76,0,0,0,.12.79,2.42,2.42,0,0,0,.36.74,1.79,1.79,0,0,0,.65.53,2,2,0,0,0,1,.21h4V40.27s0,0,0,.06,0,0,0,.06v.42h0a2.66,2.66,0,1,0,5.32,0h0v-.24c0-.08,0-.16,0-.24s0-.16,0-.24V24.85h4a2,2,0,0,0,1-.21,1.94,1.94,0,0,0,.64-.53,2.26,2.26,0,0,0,.38-.74,3.13,3.13,0,0,0,.11-.79A3,3,0,0,0,85,21.81Zm31.34,18.5h0V27.44a2.27,2.27,0,0,0-.78-1.91,2.87,2.87,0,0,0-1.86-.61,2.82,2.82,0,0,0-1.84.61,2.3,2.3,0,0,0-.77,1.91v7.27a2.41,2.41,0,0,1-.23,1,2.06,2.06,0,0,1-.5.67,1.81,1.81,0,0,1-.66.37,2.16,2.16,0,0,1-.67.12,2.19,2.19,0,0,1-.7-.12,1.61,1.61,0,0,1-.66-.39,2.3,2.3,0,0,1-.49-.71,2.71,2.71,0,0,1-.19-1.1V27.46a2.31,2.31,0,0,0-.79-1.93,3,3,0,0,0-1.87-.61,2.92,2.92,0,0,0-1.87.61,2.28,2.28,0,0,0-.79,1.93v6.82a10.33,10.33,0,0,0,.46,3.35,5.66,5.66,0,0,0,1.25,2.15,4.37,4.37,0,0,0,1.86,1.13,7.88,7.88,0,0,0,2.32.33,5.69,5.69,0,0,0,2.53-.55A5.35,5.35,0,0,0,112,39.16l.28,1.65h0a2,2,0,0,0,4,0h0Zm13.36-14.17a2.19,2.19,0,0,0-1.12-1A2,2,0,0,0,128,25a4.35,4.35,0,0,0-.61,0,4.65,4.65,0,0,0-1.83.38,5.75,5.75,0,0,0-1.6,1.05,2.25,2.25,0,0,0-1-1.07,2.93,2.93,0,0,0-2.39-.19,2.54,2.54,0,0,0-.83.48,2.22,2.22,0,0,0-.58.79,2.51,2.51,0,0,0-.22,1.1V40.81H119a2.57,2.57,0,0,0,5.13,0h0v-.43s0-.05,0-.08,0-.06,0-.09V31.86a2.17,2.17,0,0,1,.66-1.52,2.65,2.65,0,0,1,1.69-.64,4,4,0,0,1,.6,0h.59a2.28,2.28,0,0,0,1.49-.53,2.24,2.24,0,0,0,.76-1.43A2.61,2.61,0,0,0,129.72,26.14ZM18.38,21.53a2.24,2.24,0,0,0-.65-.75,2.64,2.64,0,0,0-1-.44,3.18,3.18,0,0,0-2,.16,2.55,2.55,0,0,0-1.35,1.62L9.49,34.22l-.58,2.24L7.77,40.81l-.26,1a2.72,2.72,0,0,0,1.88.76A2.85,2.85,0,0,0,12,40.81h0l0-.07s0-.08.05-.13l6.38-16.88a3.38,3.38,0,0,0,.21-1.2A2.19,2.19,0,0,0,18.38,21.53Zm-12.87.62A2.49,2.49,0,0,0,4.1,20.5,3.42,3.42,0,0,0,2,20.34a2.89,2.89,0,0,0-1,.44,2.42,2.42,0,0,0-.71.75,2.19,2.19,0,0,0-.32,1,2.58,2.58,0,0,0,.18,1.16l6.53,17v0l0,.11h0a3,3,0,0,0,.34.58l.15-.58,1.1-4.2.84-3.21Zm90.88-3.6a2.22,2.22,0,0,1-.64-.08.78.78,0,0,1-.39-.25,1,1,0,0,1-.2-.45,3.13,3.13,0,0,1-.06-.67V11.19a.92.92,0,0,1,.25-.73,1,1,0,0,1,.64-.22.84.84,0,0,1,.61.23,1,1,0,0,1,.24.72v1.48h1.6V11.19a1,1,0,0,1,.24-.73.9.9,0,0,1,.62-.22.85.85,0,0,1,.62.23,1,1,0,0,1,.24.72v7.36Zm2-1.59V14.23h-1.6v2.48a.32.32,0,0,0,0,.21.4.4,0,0,0,.2,0Zm2.7,2V10.88a.86.86,0,0,1,.88-1,.88.88,0,0,1,.62.24.91.91,0,0,1,.27.72V19Zm7.45-2.11a.67.67,0,0,1,.33.08.73.73,0,0,1,.2.19.85.85,0,0,1,.11.26,1.41,1.41,0,0,1,0,.28,1.43,1.43,0,0,1,0,.29.62.62,0,0,1-.12.26.61.61,0,0,1-.2.19.63.63,0,0,1-.32.08h-3.24a2.43,2.43,0,0,1-.66-.08.82.82,0,0,1-.41-.25,1.23,1.23,0,0,1-.22-.46A3.51,3.51,0,0,1,104,17V11.22a.88.88,0,0,1,.26-.7,1,1,0,0,1,.63-.21.91.91,0,0,1,.62.21.88.88,0,0,1,.25.7v5.37a.32.32,0,0,0,0,.21s.1.05.2.05Zm1.18-6a.87.87,0,0,1,.88-.94A.78.78,0,0,1,111,10a1,1,0,0,1,.28.17,1,1,0,0,1,.19.29,1,1,0,0,1,.08.41v2.43h.29a.68.68,0,0,1,.34.08.58.58,0,0,1,.21.2.83.83,0,0,1,.12.27,1.36,1.36,0,0,1,0,.29,1.43,1.43,0,0,1,0,.29.83.83,0,0,1-.12.27.54.54,0,0,1-.22.2.67.67,0,0,1-.33.08h-.29v4h-1.76ZM117.65,17v2h-1.81V17h-2.5a.64.64,0,0,1-.57-.24.9.9,0,0,1-.18-.54,1.45,1.45,0,0,1,0-.29.75.75,0,0,1,.13-.25.71.71,0,0,1,.23-.19.91.91,0,0,1,.35-.06h6.82a.86.86,0,0,1,.34.06.62.62,0,0,1,.23.19.75.75,0,0,1,.13.25,1,1,0,0,1-.13.83.67.67,0,0,1-.57.24Zm2.2-6.9a.62.62,0,0,1,.29.06.46.46,0,0,1,.18.16.53.53,0,0,1,.11.21,1.09,1.09,0,0,1,0,.25.77.77,0,0,1-.14.45.52.52,0,0,1-.48.2H115a.21.21,0,0,0-.24.23v.24h5a.55.55,0,0,1,.48.2.79.79,0,0,1,0,.9.54.54,0,0,1-.48.19h-5v.24a.23.23,0,0,0,.06.18.3.3,0,0,0,.18,0h5a.57.57,0,0,1,.48.2.83.83,0,0,1,.14.46.77.77,0,0,1-.14.45.54.54,0,0,1-.48.2h-5.72a1.29,1.29,0,0,1-1-.31,1.53,1.53,0,0,1-.29-1V11.48a1.54,1.54,0,0,1,.29-1,1.25,1.25,0,0,1,1-.32ZM127.77,15h-1.16v1.15a3.21,3.21,0,0,1-.18,1.12,2.22,2.22,0,0,1-.5.81,2,2,0,0,1-.77.49,3,3,0,0,1-2,0,2,2,0,0,1-.78-.49,2.22,2.22,0,0,1-.5-.81,3.21,3.21,0,0,1-.18-1.12V12.67a3.27,3.27,0,0,1,.18-1.13,2.22,2.22,0,0,1,.5-.81,2,2,0,0,1,.78-.49,3.2,3.2,0,0,1,2,0,2,2,0,0,1,.77.49,2.22,2.22,0,0,1,.5.81,3.27,3.27,0,0,1,.18,1.13v.73h1.16V10.86a.87.87,0,0,1,.88-.94A.78.78,0,0,1,129,10a1,1,0,0,1,.28.17.84.84,0,0,1,.2.29,1,1,0,0,1,.08.41V19h-1.77Zm-4.33,1.2a1.1,1.1,0,0,0,.2.72.64.64,0,0,0,.52.24.66.66,0,0,0,.52-.24,1.1,1.1,0,0,0,.2-.72V12.62a1.14,1.14,0,0,0-.2-.73.65.65,0,0,0-.52-.23.64.64,0,0,0-.52.23,1.14,1.14,0,0,0-.2.73Zm-65-2a1.14,1.14,0,0,0-1.61-.08,1.15,1.15,0,0,0-.09,1.62c3.85,4.29,6,6.66,6,8.31,0,1.26-1.32,2.71-3.8,5a7.71,7.71,0,0,0-.27-.77,5.28,5.28,0,0,0-1.55-2.07,5.83,5.83,0,0,0-2.25-1.05,12.21,12.21,0,0,0-2.67-.29A13.07,13.07,0,0,0,50.8,25a10.92,10.92,0,0,0-1.41.24,9.51,9.51,0,0,0-1.34.42,5.45,5.45,0,0,0-1.17.63A2.74,2.74,0,0,0,46,27.53,1.9,1.9,0,0,0,46.06,29a1.82,1.82,0,0,0,.5.63,2.19,2.19,0,0,0,.71.37,2.35,2.35,0,0,0,.79.1,1.82,1.82,0,0,0,.76-.19c.24-.1.45-.19.63-.28l.58-.23c.31-.08.61-.15.88-.2a4.82,4.82,0,0,1,.86-.08,4.41,4.41,0,0,1,.89.09,2,2,0,0,1,.74.31,1.54,1.54,0,0,1,.52.58,2.27,2.27,0,0,1,.22.93H51.48a11.06,11.06,0,0,0-2.41.25,5.82,5.82,0,0,0-2,.84,4.22,4.22,0,0,0-1.38,1.55,5.16,5.16,0,0,0-.52,2.42,5.28,5.28,0,0,0,.53,2.49A4.71,4.71,0,0,0,47,40.18a5,5,0,0,0,1.72.82,6.91,6.91,0,0,0,1.73.24H51a5.81,5.81,0,0,0,2.17-.4,5.71,5.71,0,0,0,1.75-1.1l.21,1.07h0a2,2,0,0,0,4,0h.07v-.36c0-.11,0-.21,0-.32s0-.2,0-.31v-7.9C67.2,24.68,67,23.78,58.42,14.26ZM54.14,35.7a1.28,1.28,0,0,1-.19.71,1.71,1.71,0,0,1-.49.51,2.22,2.22,0,0,1-.66.31,2.57,2.57,0,0,1-.73.1h-.36A1.65,1.65,0,0,1,50.65,37a1.13,1.13,0,0,1-.38-.94,1.23,1.23,0,0,1,.38-.95,1.67,1.67,0,0,1,1.14-.34h2.35ZM40.77,5.11,29.41,1.3s-3-.32-3.59,1a3.74,3.74,0,0,0,2.71,2.77l23.74,8s7.17.13,8.61-1A14.52,14.52,0,0,0,64,8.22L63,7.3l-6.57,3.14L49.69,8.13l5.47-6.66L53.77,0Z"/></g></g></svg>